<svg xmlns="http://www.w3.org/2000/svg" viewBox="0 0 420 280" fill="none" role="img" aria-hidden="true">
  <ellipse cx="210" cy="248" rx="120" ry="14" fill="#000" opacity="0.08"/>
  <rect x="118" y="168" width="184" height="12" rx="6" fill="#fff" opacity="0.35"/>
  <rect x="128" y="132" width="72" height="52" rx="10" fill="#fff" opacity="0.95"/>
  <rect x="136" y="142" width="56" height="6" rx="3" fill="#ee3e96" opacity="0.5"/>
  <rect x="136" y="154" width="40" height="5" rx="2.5" fill="#d1d5db"/>
  <circle cx="290" cy="118" r="26" fill="#fff" opacity="0.95" stroke="#fff" stroke-width="2"/>
  <circle cx="290" cy="112" r="10" fill="#f4b8a8"/>
  <path d="M276 128c6-8 28-8 28 0v8h-28v-8z" fill="#ee3e96"/>
  <rect x="248" y="88" width="88" height="56" rx="12" fill="#fff" opacity="0.92"/>
  <circle cx="268" cy="108" r="12" fill="#fcd9c8"/>
  <rect x="286" y="102" width="38" height="5" rx="2.5" fill="#e5e7eb"/>
  <rect x="286" y="112" width="28" height="4" rx="2" fill="#f3f4f6"/>
  <circle cx="332" cy="96" r="8" fill="#ee3e96" opacity="0.85"/>
  <rect x="56" y="72" width="88" height="56" rx="12" fill="#fff" opacity="0.92"/>
  <circle cx="76" cy="92" r="12" fill="#fcd9c8"/>
  <rect x="94" y="86" width="38" height="5" rx="2.5" fill="#e5e7eb"/>
  <rect x="94" y="96" width="28" height="4" rx="2" fill="#f3f4f6"/>
  <circle cx="40" cy="96" r="8" fill="#f26e59" opacity="0.85"/>
  <path d="M86 156c0-18 14-32 32-32s32 14 32 32" stroke="#fff" stroke-width="10" stroke-linecap="round"/>
  <circle cx="150" cy="118" r="22" fill="#fcd9c8"/>
  <path d="M128 154c4-16 40-16 44 0" fill="#ee3e96"/>
</svg>
