<svg xmlns="http://www.w3.org/2000/svg" viewBox="0 0 560 480" fill="none" role="img" aria-label="Business dashboard managing creator collaborations on Influnet">
  <defs>
    <linearGradient id="fb-pink" x1="0%" y1="0%" x2="100%" y2="100%">
      <stop offset="0%" stop-color="#ee3e96"/>
      <stop offset="100%" stop-color="#f26e59"/>
    </linearGradient>
    <linearGradient id="fb-card" x1="0%" y1="0%" x2="0%" y2="100%">
      <stop offset="0%" stop-color="#1a1a24"/>
      <stop offset="100%" stop-color="#111116"/>
    </linearGradient>
  </defs>
  <rect width="560" height="480" rx="20" fill="#111116" stroke="#ffffff12"/>
  <rect x="24" y="24" width="100" height="10" rx="5" fill="url(#fb-pink)" opacity="0.9"/>
  <text x="36" y="32" fill="#fff" font-size="10" font-weight="700" font-family="Inter,system-ui,sans-serif">Influnet</text>
  <rect x="24" y="48" width="512" height="1" fill="#ffffff10"/>
  <!-- creator cards -->
  <rect x="24" y="68" width="156" height="88" rx="12" fill="url(#fb-card)" stroke="#ffffff10"/>
  <circle cx="52" cy="96" r="16" fill="#2a2438" stroke="#ffffff14"/>
  <rect x="76" y="88" width="80" height="6" rx="3" fill="#ffffff20"/>
  <rect x="76" y="100" width="56" height="5" rx="2.5" fill="#ffffff12"/>
  <rect x="36" y="120" width="48" height="18" rx="9" fill="#ee3e9620" stroke="#ee3e9640"/>
  <circle cx="148" cy="80" r="10" fill="url(#fb-pink)" opacity="0.85"/>
  <path d="M144 80 l3 3 6-6" stroke="#fff" stroke-width="1.5" stroke-linecap="round"/>
  <rect x="196" y="68" width="156" height="88" rx="12" fill="url(#fb-card)" stroke="#ffffff10"/>
  <circle cx="224" cy="96" r="16" fill="#2a2438" stroke="#ffffff14"/>
  <rect x="248" y="88" width="80" height="6" rx="3" fill="#ffffff20"/>
  <rect x="248" y="100" width="56" height="5" rx="2.5" fill="#ffffff12"/>
  <rect x="368" y="68" width="168" height="88" rx="12" fill="url(#fb-card)" stroke="#ffffff10"/>
  <rect x="384" y="84" width="72" height="7" rx="3.5" fill="#f26e59" opacity="0.75"/>
  <rect x="384" y="100" width="120" height="40" rx="8" fill="#ffffff06"/>
  <rect x="392" y="112" width="16" height="24" rx="3" fill="#ee3e96" opacity="0.5"/>
  <rect x="412" y="104" width="16" height="32" rx="3" fill="#ee3e96" opacity="0.75"/>
  <rect x="432" y="96" width="16" height="40" rx="3" fill="url(#fb-pink)" opacity="0.9"/>
  <!-- campaign row -->
  <rect x="24" y="172" width="512" height="72" rx="12" fill="url(#fb-card)" stroke="#ffffff10"/>
  <rect x="40" y="188" width="88" height="7" rx="3.5" fill="#ee3e96" opacity="0.8"/>
  <rect x="40" y="204" width="200" height="5" rx="2.5" fill="#ffffff14"/>
  <rect x="40" y="218" width="280" height="6" rx="3" fill="#ffffff08"/>
  <rect x="40" y="218" width="180" height="6" rx="3" fill="url(#fb-pink)" opacity="0.7"/>
  <rect x="400" y="192" width="120" height="28" rx="14" fill="#22c55e20" stroke="#22c55e50"/>
  <text x="460" y="210" text-anchor="middle" fill="#22c55e" font-size="9" font-weight="700" font-family="Inter,system-ui,sans-serif">Active</text>
  <!-- messages / DM -->
  <rect x="24" y="260" width="248" height="96" rx="12" fill="url(#fb-card)" stroke="#ffffff10"/>
  <rect x="40" y="276" width="64" height="7" rx="3.5" fill="#f26e59" opacity="0.75"/>
  <rect x="40" y="292" width="200" height="5" rx="2.5" fill="#ffffff12"/>
  <rect x="40" y="304" width="160" height="5" rx="2.5" fill="#ffffff08"/>
  <rect x="40" y="324" width="72" height="20" rx="10" fill="url(#fb-pink)" opacity="0.85"/>
  <text x="76" y="338" text-anchor="middle" fill="#fff" font-size="8" font-weight="700" font-family="Inter,system-ui,sans-serif">Message</text>
  <rect x="288" y="260" width="248" height="96" rx="12" fill="url(#fb-card)" stroke="#ffffff10"/>
  <rect x="304" y="276" width="80" height="7" rx="3.5" fill="#ee3e96" opacity="0.75"/>
  <rect x="304" y="296" width="14" height="36" rx="3" fill="#ee3e96" opacity="0.45"/>
  <rect x="324" y="288" width="14" height="44" rx="3" fill="#ee3e96" opacity="0.7"/>
  <rect x="344" y="280" width="14" height="52" rx="3" fill="url(#fb-pink)" opacity="0.9"/>
  <rect x="364" y="292" width="14" height="40" rx="3" fill="#f26e59" opacity="0.6"/>
  <path d="M400 310 C430 300 460 320 490 305" stroke="#f26e59" stroke-width="1.5" fill="none" opacity="0.6"/>
  <!-- connection lines -->
  <path d="M180 156 C180 200 280 220 280 260" stroke="url(#fb-pink)" stroke-width="1.2" stroke-dasharray="4 4" opacity="0.35" fill="none"/>
  <path d="M352 156 C352 200 400 220 400 260" stroke="url(#fb-pink)" stroke-width="1.2" stroke-dasharray="4 4" opacity="0.35" fill="none"/>
  <rect x="24" y="376" width="512" height="80" rx="12" fill="#ffffff04" stroke="#ffffff08"/>
  <text x="280" y="422" text-anchor="middle" fill="#9ca3af" font-size="11" font-weight="600" font-family="Inter,system-ui,sans-serif">All creator relationships in one workspace</text>
</svg>
